<?xml version="1.0" encoding="UTF-8" standalone="no"?>
<svg
   xmlns:dc="http://purl.org/dc/elements/1.1/"
   xmlns:cc="http://creativecommons.org/ns#"
   xmlns:rdf="http://www.w3.org/1999/02/22-rdf-syntax-ns#"
   xmlns:svg="http://www.w3.org/2000/svg"
   xmlns="http://www.w3.org/2000/svg"
   xmlns:sodipodi="http://sodipodi.sourceforge.net/DTD/sodipodi-0.dtd"
   xmlns:inkscape="http://www.inkscape.org/namespaces/inkscape"
   id="svg424"
   version="1.1"
   viewBox="0 0 29.897914 29.104165"
   height="109.99999"
   width="112.99999"
   sodipodi:docname="popup-close.svg"
   inkscape:version="0.92.5 (2060ec1f9f, 2020-04-08)">
  <sodipodi:namedview
     pagecolor="#ffffff"
     bordercolor="#666666"
     borderopacity="1"
     objecttolerance="10"
     gridtolerance="10"
     guidetolerance="10"
     inkscape:pageopacity="0"
     inkscape:pageshadow="2"
     inkscape:window-width="1440"
     inkscape:window-height="836"
     id="namedview895"
     showgrid="false"
     inkscape:zoom="5.3272731"
     inkscape:cx="57.438563"
     inkscape:cy="55.750849"
     inkscape:window-x="0"
     inkscape:window-y="27"
     inkscape:window-maximized="1"
     inkscape:current-layer="layer1" />
  <defs
     id="defs418">
    <clipPath
       id="clipPath241"
       clipPathUnits="userSpaceOnUse">
      <path
         style="clip-rule:evenodd"
         id="path239"
         d="m 3357.2173,2648.5886 h 218.75 v 215.625 h -218.75 z" />
    </clipPath>
    <clipPath
       id="clipPath229"
       clipPathUnits="userSpaceOnUse">
      <path
         style="clip-rule:evenodd"
         id="path227"
         d="M 0,2.4414063e-4 H 6000 V 3375.0002 H 0 Z" />
    </clipPath>
  </defs>
  <metadata
     id="metadata421">
    <rdf:RDF>
      <cc:Work
         rdf:about="">
        <dc:format>image/svg+xml</dc:format>
        <dc:type
           rdf:resource="http://purl.org/dc/dcmitype/StillImage" />
        <dc:title />
      </cc:Work>
    </rdf:RDF>
  </metadata>
  <g
     transform="translate(-75.009373,-125.20982)"
     id="layer1">
    <g
       id="g223"
       transform="matrix(0.08466666,0,0,0.08466666,-203.55597,-93.690806)"
       style="fill:#000000;fill-opacity:1">
      <g
         clip-path="url(#clipPath229)"
         id="g225"
         style="fill:#000000;fill-opacity:1">
        <g
           transform="matrix(0.70625001,0,0,0.6875,3290.1421,2585.4407)"
           id="g231"
           style="fill:#000000;fill-opacity:1">
          <path
             id="path233"
             style="fill:#000000;fill-opacity:1;fill-rule:nonzero;stroke:none"
             d="M 250,0 C 111.92881,0 0,111.92881 0,250 0,388.0712 111.92881,500 250,500 388.0712,500 500,388.0712 500,250 500,111.92881 388.0712,0 250,0" />
        </g>
      </g>
    </g>
    <g
       id="g235"
       transform="matrix(0.08466666,0,0,0.08466666,-203.55597,-93.690806)"
       style="fill:#ffffff;fill-opacity:1">
      <g
         clip-path="url(#clipPath241)"
         id="g237"
         style="fill:#ffffff;fill-opacity:1">
        <g
           transform="matrix(1.758149,0,0,1.7616421,3290.8652,2580.2368)"
           id="g243"
           style="fill:#ffffff;fill-opacity:1">
          <path
             id="path245"
             style="fill:#ffffff;fill-opacity:1;fill-rule:nonzero;stroke:none"
             d="m 157.19922,43.753906 c -4.96485,-4.964843 -13.01172,-4.964843 -17.97656,0 L 100,82.972656 60.78125,43.753906 c -4.964844,-4.964843 -13.015625,-4.964843 -17.980469,0 -4.964843,4.964844 -4.964843,13.011719 0,17.976563 l 39.222657,39.222661 -37.316407,37.3164 c -4.96875,4.96484 -4.96875,13.01172 0,17.97656 4.960938,4.96485 13.011719,4.96485 17.976563,0 L 100,118.92969 l 37.31641,37.3164 c 4.96484,4.96485 13.01172,4.96485 17.97656,0 4.96484,-4.96484 4.96484,-13.01172 0,-17.97656 l -37.3125,-37.3164 39.21875,-39.222661 c 4.96484,-4.964844 4.96484,-13.011719 0,-17.976563" />
        </g>
      </g>
    </g>
  </g>
</svg>
