<?xml version="1.0" encoding="UTF-8" standalone="no"?>
<svg
   xmlns:dc="http://purl.org/dc/elements/1.1/"
   xmlns:cc="http://creativecommons.org/ns#"
   xmlns:rdf="http://www.w3.org/1999/02/22-rdf-syntax-ns#"
   xmlns:svg="http://www.w3.org/2000/svg"
   xmlns="http://www.w3.org/2000/svg"
   xmlns:sodipodi="http://sodipodi.sourceforge.net/DTD/sodipodi-0.dtd"
   xmlns:inkscape="http://www.inkscape.org/namespaces/inkscape"
   id="svg337"
   version="1.1"
   viewBox="0 0 259.18326 196.20512"
   height="741.56268"
   width="979.59027"
   sodipodi:docname="popup-background.svg"
   inkscape:version="0.92.5 (2060ec1f9f, 2020-04-08)">
  <sodipodi:namedview
     pagecolor="#ffffff"
     bordercolor="#666666"
     borderopacity="1"
     objecttolerance="10"
     gridtolerance="10"
     guidetolerance="10"
     inkscape:pageopacity="0"
     inkscape:pageshadow="2"
     inkscape:window-width="1440"
     inkscape:window-height="836"
     id="namedview110"
     showgrid="false"
     inkscape:zoom="0.79022315"
     inkscape:cx="457.52577"
     inkscape:cy="370.78134"
     inkscape:window-x="0"
     inkscape:window-y="27"
     inkscape:window-maximized="1"
     inkscape:current-layer="svg337" />
  <defs
     id="defs331">
    <clipPath
       id="clipPath193"
       clipPathUnits="userSpaceOnUse">
      <path
         id="path191"
         d="M 0,2.4414063e-4 H 6000 V 3406.2502 H 0 Z" />
    </clipPath>
    <clipPath
       id="clipPath199"
       clipPathUnits="userSpaceOnUse">
      <path
         id="path197"
         d="M 0,2.4414063e-4 H 6000 V 3375.0002 H 0 Z" />
    </clipPath>
    <clipPath
       id="clipPath205"
       clipPathUnits="userSpaceOnUse">
      <path
         id="path203"
         d="M 0,2.4414063e-4 H 6000 V 3375.0002 H 0 Z" />
    </clipPath>
    <clipPath
       id="clipPath211"
       clipPathUnits="userSpaceOnUse">
      <path
         id="path209"
         d="M 1123.3121,2880.2351 1284.0559,504.41675 4330.2168,710.51489 4169.4727,3086.3333 Z" />
    </clipPath>
    <clipPath
       id="clipPath217"
       clipPathUnits="userSpaceOnUse">
      <path
         id="path215"
         d="M 1123.3121,2880.2351 1284.0559,504.41675 4330.2168,710.51489 4169.4727,3086.3333 Z" />
    </clipPath>
  </defs>
  <metadata
     id="metadata334">
    <rdf:RDF>
      <cc:Work
         rdf:about="">
        <dc:format>image/svg+xml</dc:format>
        <dc:type
           rdf:resource="http://purl.org/dc/dcmitype/StillImage" />
        <dc:title />
      </cc:Work>
    </rdf:RDF>
  </metadata>
  <g
     transform="translate(20.734474,-37.879582)"
     id="layer1">
    <g
       id="g187"
       transform="matrix(0.08466666,0,0,0.08466666,-121.01726,-14.800928)">
      <g
         clip-path="url(#clipPath193)"
         id="g189">
        <g
           clip-path="url(#clipPath199)"
           id="g195">
          <g
             clip-path="url(#clipPath205)"
             id="g201">
            <g
               clip-path="url(#clipPath211)"
               id="g207">
              <g
                 clip-path="url(#clipPath217)"
                 id="g213">
                <g
                   transform="matrix(1.3417681,-19.831537,19.833099,1.3418739,1124.2022,2880.2954)"
                   id="g219">
                  <path
                     id="path221"
                     style="fill:#ffd770;fill-opacity:1;fill-rule:nonzero;stroke:none"
                     d="M 4.5999999,30.799999 C -8.3999996,51.400002 9.8999996,56.099998 14.6,74.699997 19.6,94.099998 4,114.1 16.200001,132.2 45.5,175.79999 106.5,145.7 117.10001,104.3 c 2.1,-8.300008 4.69999,-19.500005 0,-27.600003 -6.1,-10.699997 -19.900005,-7.5 -23.500004,-12.700001 -7.400001,-10.799999 0.599999,-19.5 -5.400001,-32.799999 -4,-9 -14.400002,-2.200001 -19.099999,-6.4 C 62.000008,18.399998 65.800003,7.8999977 55.700005,2.5999966 36.300003,-7.8000031 14.200005,15.499996 4.6000061,30.799997 Z" />
                </g>
              </g>
            </g>
          </g>
        </g>
      </g>
    </g>
  </g>
  <path
     style="fill:#e10075;fill-opacity:0;stroke:none;stroke-width:3.79639602;stroke-miterlimit:4;stroke-dasharray:none"
     d="M 241.38429,738.10208 C 208.00847,729.5963 165.22688,700.84364 117.00558,654.5096 53.416245,593.40899 12.674738,527.73308 2.8716697,470.52407 0.37880483,455.97614 0.40006667,431.13724 2.9167405,417.87042 8.1108223,390.48945 23.789512,361.65054 41.185651,347.47975 c 13.720815,-11.1769 27.075545,-16.41252 61.139829,-23.96942 34.28084,-7.60494 48.90904,-13.70073 62.28046,-25.95322 12.07016,-11.0601 15.9502,-22.58492 16.01095,-47.5569 0.0819,-33.64279 6.31529,-54.10756 19.55733,-64.20777 10.88409,-8.3017 33.23479,-15.72706 55.9428,-18.58533 15.6271,-1.96699 41.65655,-0.91722 68.15525,2.74872 28.14567,3.89377 54.13977,3.92841 69.52459,0.0926 15.18591,-3.7862 33.9966,-12.8064 40.11149,-19.23448 6.72255,-7.06686 12.27551,-19.53335 21.23924,-47.68245 9.589,-30.112628 14.78041,-42.356153 23.54444,-55.527675 15.45194,-23.222834 38.21338,-38.148672 67.66941,-44.3742869 14.48556,-3.06156639 44.71019,-3.05545814 64.53873,0.013043 30.09757,4.6576505 86.6358,21.4973049 115.15734,34.2990849 74.31324,33.355206 143.06403,95.403044 189.19309,170.747454 67.70912,110.59198 82.37019,233.60075 39.39475,330.52838 -21.63961,48.80638 -59.10255,92.0254 -107.88582,124.46218 -37.10442,24.67132 -64.7108,34.49666 -102.05174,36.32107 -32.34614,1.58037 -56.67392,-2.58044 -140.13495,-23.96751 -44.78186,-11.47546 -69.8132,-15.91277 -95.54263,-16.93688 -51.2456,-2.03972 -87.97871,9.38773 -151.22311,47.04466 -28.66538,17.06793 -45.68898,25.5956 -60.74233,30.42783 -14.67967,4.71226 -41.16714,5.63189 -55.68048,1.9332 z"
     id="path921"
     inkscape:connector-curvature="0"
     transform="scale(0.26458333)" />
  <path
     style="fill:#e10075;fill-opacity:0;stroke:none;stroke-width:3.79639602;stroke-miterlimit:4;stroke-dasharray:none"
     d="M 241.38429,738.10208 C 208.00847,729.5963 165.22688,700.84364 117.00558,654.5096 53.416245,593.40899 12.674738,527.73308 2.8716697,470.52407 0.37880483,455.97614 0.40006667,431.13724 2.9167405,417.87042 8.1108223,390.48945 23.789512,361.65054 41.185651,347.47975 c 13.720815,-11.1769 27.075545,-16.41252 61.139829,-23.96942 34.28084,-7.60494 48.90904,-13.70073 62.28046,-25.95322 12.07016,-11.0601 15.9502,-22.58492 16.01095,-47.5569 0.0819,-33.64279 6.31529,-54.10756 19.55733,-64.20777 10.88409,-8.3017 33.23479,-15.72706 55.9428,-18.58533 15.6271,-1.96699 41.65655,-0.91722 68.15525,2.74872 28.14567,3.89377 54.13977,3.92841 69.52459,0.0926 15.18591,-3.7862 33.9966,-12.8064 40.11149,-19.23448 6.72255,-7.06686 12.27551,-19.53335 21.23924,-47.68245 9.589,-30.112628 14.78041,-42.356153 23.54444,-55.527675 15.45194,-23.222834 38.21338,-38.148672 67.66941,-44.3742869 14.48556,-3.06156639 44.71019,-3.05545814 64.53873,0.013043 30.09757,4.6576505 86.6358,21.4973049 115.15734,34.2990849 74.31324,33.355206 143.06403,95.403044 189.19309,170.747454 67.70912,110.59198 82.37019,233.60075 39.39475,330.52838 -21.63961,48.80638 -59.10255,92.0254 -107.88582,124.46218 -37.10442,24.67132 -64.7108,34.49666 -102.05174,36.32107 -32.34614,1.58037 -56.67392,-2.58044 -140.13495,-23.96751 -44.78186,-11.47546 -69.8132,-15.91277 -95.54263,-16.93688 -51.2456,-2.03972 -87.97871,9.38773 -151.22311,47.04466 -28.66538,17.06793 -45.68898,25.5956 -60.74233,30.42783 -14.67967,4.71226 -41.16714,5.63189 -55.68048,1.9332 z"
     id="path923"
     inkscape:connector-curvature="0"
     transform="scale(0.26458333)" />
  <path
     style="fill:#e10075;fill-opacity:0;stroke:none;stroke-width:3.79639602;stroke-miterlimit:4;stroke-dasharray:none"
     d="M 241.38429,738.10208 C 208.00847,729.5963 165.22688,700.84364 117.00558,654.5096 53.416245,593.40899 12.674738,527.73308 2.8716697,470.52407 0.37880483,455.97614 0.40006667,431.13724 2.9167405,417.87042 8.1108223,390.48945 23.789512,361.65054 41.185651,347.47975 c 13.720815,-11.1769 27.075545,-16.41252 61.139829,-23.96942 34.28084,-7.60494 48.90904,-13.70073 62.28046,-25.95322 12.07016,-11.0601 15.9502,-22.58492 16.01095,-47.5569 0.0819,-33.64279 6.31529,-54.10756 19.55733,-64.20777 10.88409,-8.3017 33.23479,-15.72706 55.9428,-18.58533 15.6271,-1.96699 41.65655,-0.91722 68.15525,2.74872 28.14567,3.89377 54.13977,3.92841 69.52459,0.0926 15.18591,-3.7862 33.9966,-12.8064 40.11149,-19.23448 6.72255,-7.06686 12.27551,-19.53335 21.23924,-47.68245 9.589,-30.112628 14.78041,-42.356153 23.54444,-55.527675 15.45194,-23.222834 38.21338,-38.148672 67.66941,-44.3742869 14.48556,-3.06156639 44.71019,-3.05545814 64.53873,0.013043 30.09757,4.6576505 86.6358,21.4973049 115.15734,34.2990849 74.31324,33.355206 143.06403,95.403044 189.19309,170.747454 67.70912,110.59198 82.37019,233.60075 39.39475,330.52838 -21.63961,48.80638 -59.10255,92.0254 -107.88582,124.46218 -37.10442,24.67132 -64.7108,34.49666 -102.05174,36.32107 -32.34614,1.58037 -56.67392,-2.58044 -140.13495,-23.96751 -44.78186,-11.47546 -69.8132,-15.91277 -95.54263,-16.93688 -51.2456,-2.03972 -87.97871,9.38773 -151.22311,47.04466 -28.66538,17.06793 -45.68898,25.5956 -60.74233,30.42783 -14.67967,4.71226 -41.16714,5.63189 -55.68048,1.9332 z"
     id="path925"
     inkscape:connector-curvature="0"
     transform="scale(0.26458333)" />
  <path
     style="fill:#e10075;fill-opacity:1;stroke:none;stroke-width:3.79639602;stroke-miterlimit:4;stroke-dasharray:none"
     d="M 241.38429,738.10208 C 208.00847,729.5963 165.22688,700.84364 117.00558,654.5096 53.416245,593.40899 12.674738,527.73308 2.8716697,470.52407 0.37880483,455.97614 0.40006667,431.13724 2.9167405,417.87042 8.1108223,390.48945 23.789512,361.65054 41.185651,347.47975 c 13.720815,-11.1769 27.075545,-16.41252 61.139829,-23.96942 34.28084,-7.60494 48.90904,-13.70073 62.28046,-25.95322 12.07016,-11.0601 15.9502,-22.58492 16.01095,-47.5569 0.0819,-33.64279 6.31529,-54.10756 19.55733,-64.20777 10.88409,-8.3017 33.23479,-15.72706 55.9428,-18.58533 15.6271,-1.96699 41.65655,-0.91722 68.15525,2.74872 28.14567,3.89377 54.13977,3.92841 69.52459,0.0926 15.18591,-3.7862 33.9966,-12.8064 40.11149,-19.23448 6.72255,-7.06686 12.27551,-19.53335 21.23924,-47.68245 9.589,-30.112628 14.78041,-42.356153 23.54444,-55.527675 15.45194,-23.222834 38.21338,-38.148672 67.66941,-44.3742869 14.48556,-3.06156639 44.71019,-3.05545814 64.53873,0.013043 30.09757,4.6576505 86.6358,21.4973049 115.15734,34.2990849 74.31324,33.355206 143.06403,95.403044 189.19309,170.747454 67.70912,110.59198 82.37019,233.60075 39.39475,330.52838 -21.63961,48.80638 -59.10255,92.0254 -107.88582,124.46218 -37.10442,24.67132 -64.7108,34.49666 -102.05174,36.32107 -32.34614,1.58037 -56.67392,-2.58044 -140.13495,-23.96751 -44.78186,-11.47546 -69.8132,-15.91277 -95.54263,-16.93688 -51.2456,-2.03972 -87.97871,9.38773 -151.22311,47.04466 -28.66538,17.06793 -45.68898,25.5956 -60.74233,30.42783 -14.67967,4.71226 -41.16714,5.63189 -55.68048,1.9332 z"
     id="path927"
     inkscape:connector-curvature="0"
     transform="scale(0.26458333)" />
</svg>
